<?xml version="1.0" encoding="UTF-8" standalone="no"?>
<!DOCTYPE svg PUBLIC "-//W3C//DTD SVG 1.1//EN" "http://www.w3.org/Graphics/SVG/1.1/DTD/svg11.dtd">
<svg version="1.1" xmlns="http://www.w3.org/2000/svg" xmlns:xlink="http://www.w3.org/1999/xlink" preserveAspectRatio="xMidYMid meet" viewBox="0 0 640 640" width="640" height="640"><defs><path d="M24.66 12.33C24.66 19.14 19.14 24.66 12.33 24.66C5.53 24.66 0 19.14 0 12.33C0 5.53 5.53 0 12.33 0C19.14 0 24.66 5.53 24.66 12.33Z" id="d4thiiZbM"></path><path d="M172.39 98.88C172.39 104.32 168.18 108.74 163 108.74C157.81 108.74 153.6 104.32 153.6 98.88C153.6 93.43 157.81 89.01 163 89.01C168.18 89.01 172.39 93.43 172.39 98.88Z" id="a1g6ZHYFR4"></path><path d="M254.36 217.13C254.36 223.94 249.1 229.46 242.62 229.46C236.14 229.46 230.87 223.94 230.87 217.13C230.87 210.33 236.14 204.8 242.62 204.8C249.1 204.8 254.36 210.33 254.36 217.13Z" id="atwXpPkny"></path><path d="M360.05 344.08C360.05 349.52 355.84 353.94 350.66 353.94C345.47 353.94 341.26 349.52 341.26 344.08C341.26 338.63 345.47 334.21 350.66 334.21C355.84 334.21 360.05 338.63 360.05 344.08Z" id="e2UCZyJq56"></path><path d="M632.04 491.93C632.04 500.03 625.77 506.61 618.06 506.61C610.34 506.61 604.08 500.03 604.08 491.93C604.08 483.83 610.34 477.25 618.06 477.25C625.77 477.25 632.04 483.83 632.04 491.93Z" id="aAvYukI6X"></path><path d="M479.6 630.38C479.6 635.82 475.39 640.25 470.2 640.25C465.02 640.25 460.81 635.82 460.81 630.38C460.81 624.94 465.02 620.52 470.2 620.52C475.39 620.52 479.6 624.94 479.6 630.38Z" id="b36hHjycXw"></path><path d="M305.09 489.58C305.09 496.38 299.57 501.91 292.76 501.91C285.96 501.91 280.43 496.38 280.43 489.58C280.43 482.77 285.96 477.25 292.76 477.25C299.57 477.25 305.09 482.77 305.09 489.58Z" id="e5JLOK7Smr"></path></defs><g><g><g><g><use xlink:href="#d4thiiZbM" opacity="1" fill="#f2f1eb" fill-opacity="1"></use></g><g><use xlink:href="#a1g6ZHYFR4" opacity="1" fill="#f2f1eb" fill-opacity="1"></use></g><g><use xlink:href="#atwXpPkny" opacity="1" fill="#f2f1eb" fill-opacity="1"></use></g><g><use xlink:href="#e2UCZyJq56" opacity="1" fill="#f2f1eb" fill-opacity="1"></use></g><g><use xlink:href="#aAvYukI6X" opacity="1" fill="#f2f1eb" fill-opacity="1"></use></g><g><use xlink:href="#b36hHjycXw" opacity="1" fill="#f2f1eb" fill-opacity="1"></use></g><g><use xlink:href="#e5JLOK7Smr" opacity="1" fill="#f2f1eb" fill-opacity="1"></use></g></g></g></g></svg>